<svg width="50" height="32" viewBox="0 0 50 32" fill="none" xmlns="http://www.w3.org/2000/svg">
<g id="Google Pay">
<g id="Google Pay_2">
<g id="Group">
<path id="Vector" d="M23.9714 16.8272V21.2504H22.5682V10.3271H26.2898C26.734 10.3178 27.1757 10.3966 27.5893 10.5589C28.0029 10.7212 28.3803 10.9638 28.6996 11.2727C29.0222 11.5629 29.279 11.9187 29.4526 12.3163C29.6262 12.714 29.7127 13.1442 29.7063 13.578C29.7155 14.0142 29.6304 14.4472 29.4566 14.8473C29.2829 15.2475 29.0246 15.6053 28.6996 15.8964C28.0489 16.5169 27.2456 16.8269 26.2898 16.8263H23.9714V16.8272ZM23.9714 11.6719V15.485H26.3246C26.5826 15.4926 26.8393 15.4464 27.0784 15.3491C27.3175 15.2518 27.5336 15.1058 27.713 14.9202C27.8915 14.7467 28.0333 14.5392 28.1302 14.3099C28.2271 14.0807 28.277 13.8343 28.277 13.5854C28.277 13.3365 28.2271 13.0902 28.1302 12.8609C28.0333 12.6316 27.8915 12.4241 27.713 12.2506C27.5359 12.0611 27.3205 11.9115 27.0811 11.8116C26.8418 11.7116 26.5839 11.6637 26.3246 11.671H23.9714V11.6719Z" fill="white"/>
<path id="Vector_2" d="M32.9398 13.5326C33.977 13.5326 34.7957 13.8098 35.3959 14.3641C35.9961 14.9184 36.296 15.6784 36.2954 16.6441V21.2503H34.9532V20.2132H34.8922C34.3111 21.0673 33.5383 21.4944 32.5738 21.4944C31.7504 21.4944 31.0616 21.2503 30.5073 20.7623C30.2413 20.5382 30.0286 20.2577 29.8848 19.9411C29.7409 19.6244 29.6695 19.2797 29.6758 18.932C29.6758 18.1586 29.9681 17.5436 30.5526 17.0869C31.1372 16.6302 31.9175 16.4012 32.8937 16.4001C33.7269 16.4001 34.4131 16.5526 34.9523 16.8576V16.5369C34.9539 16.2999 34.9027 16.0654 34.8024 15.8506C34.7022 15.6358 34.5554 15.446 34.3727 15.2949C34.0016 14.9601 33.518 14.7775 33.0183 14.7833C32.2345 14.7833 31.6142 15.1139 31.1575 15.7752L29.9216 14.9969C30.6014 14.0207 31.6075 13.5326 32.9398 13.5326ZM31.1244 18.9625C31.1234 19.1411 31.1652 19.3173 31.2461 19.4765C31.3271 19.6357 31.4449 19.7732 31.5898 19.8776C31.9001 20.1217 32.2853 20.2511 32.6801 20.2437C33.2723 20.2427 33.8399 20.007 34.2585 19.5883C34.7234 19.1507 34.9558 18.6374 34.9558 18.0482C34.5183 17.6996 33.9082 17.5253 33.1255 17.5253C32.5555 17.5253 32.0802 17.6627 31.6996 17.9375C31.3152 18.2164 31.1244 18.5555 31.1244 18.9625Z" fill="white"/>
<path id="Vector_3" d="M44 13.7767L39.3144 24.5449H37.8659L39.6047 20.7771L36.5237 13.7767H38.0489L40.2758 19.1456H40.3063L42.4721 13.7767H44Z" fill="white"/>
<g id="Group_2">
<path id="Vector_4" d="M18.301 15.8737C18.3015 15.4461 18.2653 15.0192 18.1929 14.5977H12.275V17.0146H15.6645C15.5951 17.4006 15.4483 17.7685 15.2329 18.0963C15.0175 18.424 14.738 18.7048 14.4112 18.9216V20.4904H16.4341C17.6185 19.3983 18.301 17.7833 18.301 15.8737Z" fill="white"/>
<path id="Vector_5" d="M12.275 22.006C13.9685 22.006 15.3944 21.45 16.4341 20.4913L14.4112 18.9224C13.8482 19.3042 13.1231 19.5221 12.275 19.5221C10.6382 19.5221 9.24895 18.4187 8.75216 16.9318H6.66825V18.5485C7.19055 19.5879 7.99144 20.4616 8.9815 21.0721C9.97157 21.6827 11.1118 22.006 12.275 22.006Z" fill="white"/>
<path id="Vector_6" d="M8.75212 16.9318C8.48948 16.1527 8.48948 15.309 8.75212 14.5298V12.9131H6.6682C6.22883 13.7874 6 14.7523 6 15.7308C6 16.7093 6.22883 17.6743 6.6682 18.5486L8.75212 16.9318Z" fill="white"/>
<path id="Vector_7" d="M12.275 11.9395C13.1699 11.9248 14.0347 12.263 14.6823 12.8807L16.4734 11.0897C15.3376 10.0229 13.8331 9.43729 12.275 9.45549C11.1118 9.45554 9.97157 9.77889 8.9815 10.3894C7.99144 11 7.19055 11.8737 6.66825 12.913L8.75216 14.5297C9.24895 13.0429 10.6382 11.9395 12.275 11.9395Z" fill="white"/>
</g>
</g>
</g>
</g>
</svg>
