<svg width="46" height="48" viewBox="0 0 46 48" fill="none" xmlns="http://www.w3.org/2000/svg">
<path opacity="0.25" fill-rule="evenodd" clip-rule="evenodd" d="M11.9208 5.22143C10.1355 7.51349 9.07214 10.3954 9.07214 13.5258C9.07214 20.9958 15.1278 27.0515 22.5979 27.0515C23.141 27.0515 23.6766 27.0195 24.2029 26.9573C25.9882 24.6653 27.0515 21.7833 27.0515 18.653C27.0515 11.1829 20.9959 5.1272 13.5258 5.1272C12.9827 5.1272 12.4471 5.1592 11.9208 5.22143Z" fill="white"/>
<path opacity="0.25" fill-rule="evenodd" clip-rule="evenodd" d="M11.9208 42.7788C10.1355 40.4868 9.07214 37.6048 9.07214 34.4745C9.07214 27.0044 15.1278 20.9487 22.5979 20.9487C23.141 20.9487 23.6766 20.9807 24.2029 21.0429C25.9882 23.335 27.0515 26.2169 27.0515 29.3473C27.0515 36.8174 20.9959 42.873 13.5258 42.873C12.9827 42.873 12.4471 42.841 11.9208 42.7788Z" fill="white"/>
<path opacity="0.25" fill-rule="evenodd" clip-rule="evenodd" d="M33.1761 5.22142C34.9613 7.51348 36.0247 10.3954 36.0247 13.5258C36.0247 20.9958 29.969 27.0515 22.4989 27.0515C21.9559 27.0515 21.4203 27.0195 20.894 26.9573C19.1088 24.6653 18.0454 21.7833 18.0454 18.653C18.0454 11.1829 24.1011 5.1272 31.5711 5.1272C32.1142 5.1272 32.6498 5.1592 33.1761 5.22142Z" fill="white"/>
<path opacity="0.25" fill-rule="evenodd" clip-rule="evenodd" d="M33.1761 42.7788C34.9613 40.4868 36.0247 37.6048 36.0247 34.4745C36.0247 27.0044 29.969 20.9487 22.4989 20.9487C21.9559 20.9487 21.4203 20.9807 20.894 21.0429C19.1088 23.335 18.0454 26.2169 18.0454 29.3473C18.0454 36.8174 24.1011 42.873 31.5711 42.873C32.1142 42.873 32.6498 42.841 33.1761 42.7788Z" fill="white"/>
<path opacity="0.25" fill-rule="evenodd" clip-rule="evenodd" d="M44.095 24.0071C42.0208 28.8143 37.2384 32.179 31.6702 32.179C26.1019 32.179 21.3196 28.8142 19.2454 24.0071C21.3196 19.1999 26.1019 15.8352 31.6702 15.8352C37.2384 15.8352 42.0208 19.1999 44.095 24.0071Z" fill="white"/>
<path opacity="0.25" fill-rule="evenodd" clip-rule="evenodd" d="M25.9506 24.0071C23.8764 28.8143 19.0941 32.179 13.5258 32.179C7.95758 32.179 3.17521 28.8142 1.10101 24.0071C3.17522 19.1999 7.95758 15.8352 13.5258 15.8352C19.0941 15.8352 23.8764 19.1999 25.9506 24.0071Z" fill="white"/>
<path fill-rule="evenodd" clip-rule="evenodd" d="M31.6701 42.8865C39.1402 42.8865 45.1959 36.8308 45.1959 29.3607C45.1959 21.8906 39.1402 15.8349 31.6701 15.8349C24.2 15.8349 18.1443 21.8906 18.1443 29.3607C18.1443 36.8308 24.2 42.8865 31.6701 42.8865ZM31.6701 41.7318C38.5025 41.7318 44.0413 36.1931 44.0413 29.3607C44.0413 22.5283 38.5025 16.9896 31.6701 16.9896C24.8377 16.9896 19.299 22.5283 19.299 29.3607C19.299 36.1931 24.8377 41.7318 31.6701 41.7318Z" fill="white"/>
<path fill-rule="evenodd" clip-rule="evenodd" d="M13.5257 42.8865C20.9958 42.8865 27.0515 36.8308 27.0515 29.3607C27.0515 21.8906 20.9958 15.8349 13.5257 15.8349C6.05566 15.8349 -3.24968e-05 21.8906 -3.31498e-05 29.3607C-3.38029e-05 36.8308 6.05566 42.8865 13.5257 42.8865ZM13.5258 41.7318C20.3582 41.7318 25.8969 36.1931 25.8969 29.3607C25.8969 22.5283 20.3582 16.9896 13.5258 16.9896C6.6934 16.9896 1.15465 22.5283 1.15465 29.3607C1.15465 36.1931 6.6934 41.7318 13.5258 41.7318Z" fill="white"/>
<path fill-rule="evenodd" clip-rule="evenodd" d="M13.5258 5.11353C6.05569 5.11353 0 11.1692 0 18.6393C0 26.1094 6.05569 32.1651 13.5258 32.1651C20.9959 32.1651 27.0515 26.1094 27.0515 18.6393C27.0515 11.1692 20.9959 5.11353 13.5258 5.11353ZM13.5258 6.26809C6.69337 6.26809 1.15462 11.8068 1.15462 18.6392C1.15462 25.4716 6.69337 31.0104 13.5258 31.0104C20.3581 31.0104 25.8969 25.4716 25.8969 18.6392C25.8969 11.8068 20.3581 6.26809 13.5258 6.26809Z" fill="white"/>
<path fill-rule="evenodd" clip-rule="evenodd" d="M31.6701 5.11353C24.2 5.11353 18.1443 11.1692 18.1443 18.6393C18.1443 26.1094 24.2 32.1651 31.6701 32.1651C39.1402 32.1651 45.1959 26.1094 45.1959 18.6393C45.1959 11.1692 39.1402 5.11353 31.6701 5.11353ZM31.6701 6.26809C24.8377 6.26809 19.299 11.8068 19.299 18.6392C19.299 25.4716 24.8377 31.0104 31.6701 31.0104C38.5025 31.0104 44.0412 25.4716 44.0412 18.6392C44.0412 11.8068 38.5025 6.26809 31.6701 6.26809Z" fill="white"/>
<path fill-rule="evenodd" clip-rule="evenodd" d="M22.5979 0C15.1278 0 9.07214 6.05569 9.07214 13.5258C9.07214 20.9959 15.1278 27.0515 22.5979 27.0515C30.068 27.0515 36.1237 20.9959 36.1237 13.5258C36.1237 6.05569 30.068 0 22.5979 0ZM22.598 1.15468C15.7656 1.15468 10.2268 6.69343 10.2268 13.5258C10.2268 20.3582 15.7656 25.8969 22.598 25.8969C29.4303 25.8969 34.9691 20.3582 34.9691 13.5258C34.9691 6.69343 29.4303 1.15468 22.598 1.15468Z" fill="white"/>
<path fill-rule="evenodd" clip-rule="evenodd" d="M22.5979 48C30.068 48 36.1237 41.9443 36.1237 34.4742C36.1237 27.0041 30.068 20.9485 22.5979 20.9485C15.1279 20.9485 9.07217 27.0041 9.07217 34.4742C9.07217 41.9443 15.1279 48 22.5979 48ZM22.5979 46.8453C29.4303 46.8453 34.9691 41.3065 34.9691 34.4741C34.9691 27.6417 29.4303 22.103 22.5979 22.103C15.7655 22.103 10.2268 27.6417 10.2268 34.4741C10.2268 41.3065 15.7655 46.8453 22.5979 46.8453Z" fill="white"/>
</svg>
