<svg width="50" height="32" viewBox="0 0 50 32" fill="none" xmlns="http://www.w3.org/2000/svg">
<g id="PayPal">
<g id="PayPal_2">
<g id="Group">
<g id="Group_2">
<path id="Vector" d="M14.8739 20.9001H12.8012C12.6594 20.9001 12.5387 21.0031 12.5166 21.1431L11.6783 26.4581C11.6617 26.5629 11.7429 26.6575 11.8493 26.6575H12.8388C12.9806 26.6575 13.1012 26.5545 13.1234 26.4141L13.3494 24.9806C13.3713 24.8403 13.4922 24.7372 13.6337 24.7372H14.2899C15.6552 24.7372 16.4432 24.0766 16.649 22.7673C16.7417 22.1945 16.6529 21.7444 16.3847 21.4292C16.0901 21.0831 15.5676 20.9001 14.8739 20.9001ZM15.113 22.8412C14.9997 23.585 14.4314 23.585 13.8819 23.585H13.5692L13.7886 22.196C13.8016 22.1121 13.8744 22.0502 13.9592 22.0502H14.1026C14.4769 22.0502 14.8299 22.0502 15.0124 22.2636C15.1212 22.3909 15.1545 22.58 15.113 22.8412Z" fill="white"/>
<path id="Vector_2" d="M21.0696 22.8166H20.0771C19.9925 22.8166 19.9195 22.8784 19.9064 22.9624L19.8625 23.24L19.7931 23.1394C19.5782 22.8275 19.0991 22.7232 18.6208 22.7232C17.524 22.7232 16.5872 23.5539 16.4048 24.7193C16.3099 25.3005 16.4448 25.8564 16.7745 26.244C17.077 26.6004 17.5098 26.7489 18.0247 26.7489C18.9084 26.7489 19.3985 26.1807 19.3985 26.1807L19.3542 26.4564C19.3376 26.5619 19.4188 26.6565 19.5246 26.6565H20.4186C20.5608 26.6565 20.6808 26.5534 20.7032 26.4131L21.2396 23.016C21.2566 22.9114 21.1757 22.8166 21.0696 22.8166ZM19.6861 24.7483C19.5903 25.3154 19.1403 25.696 18.5663 25.696C18.278 25.696 18.0477 25.6036 17.8998 25.4284C17.7531 25.2545 17.6974 25.0069 17.744 24.7311C17.8334 24.1689 18.2911 23.7758 18.8563 23.7758C19.1382 23.7758 19.3673 23.8694 19.5182 24.0461C19.6694 24.2246 19.7294 24.4738 19.6861 24.7483Z" fill="white"/>
<path id="Vector_3" d="M26.3557 22.8166H25.3583C25.2631 22.8166 25.1737 22.8639 25.1198 22.943L23.7442 24.9693L23.161 23.0221C23.1244 22.9002 23.0119 22.8166 22.8846 22.8166H21.9045C21.7854 22.8166 21.7027 22.933 21.7406 23.0451L22.8392 26.2692L21.8063 27.7272C21.7251 27.8421 21.8069 28 21.9473 28H22.9434C23.038 28 23.1265 27.9539 23.1801 27.8763L26.4975 23.0878C26.5769 22.9733 26.4954 22.8166 26.3557 22.8166Z" fill="white"/>
<path id="Vector_4" d="M29.6578 20.8994H27.5848C27.4433 20.8994 27.3227 21.0024 27.3005 21.1424L26.4623 26.4574C26.4456 26.5622 26.5268 26.6568 26.6326 26.6568H27.6964C27.7952 26.6568 27.8797 26.5847 27.8952 26.4865L28.1331 24.9799C28.1549 24.8396 28.2758 24.7365 28.4174 24.7365H29.0732C30.4388 24.7365 31.2265 24.0759 31.4326 22.7666C31.5256 22.1938 31.4362 21.7437 31.168 21.4285C30.8737 21.0824 30.3515 20.8994 29.6578 20.8994ZM29.8969 22.8405C29.7839 23.5843 29.2156 23.5843 28.6659 23.5843H28.3534L28.5731 22.1953C28.5862 22.1114 28.6583 22.0495 28.7435 22.0495H28.8868C29.2608 22.0495 29.6142 22.0495 29.7966 22.2629C29.9054 22.3902 29.9385 22.5793 29.8969 22.8405Z" fill="white"/>
<path id="Vector_5" d="M35.8533 22.8166H34.8613C34.7762 22.8166 34.7037 22.8784 34.691 22.9624L34.6471 23.24L34.5774 23.1394C34.3625 22.8275 33.8836 22.7232 33.4054 22.7232C32.3086 22.7232 31.3721 23.5539 31.1896 24.7193C31.0951 25.3005 31.2293 25.8564 31.5591 26.244C31.8622 26.6004 32.2943 26.7489 32.8092 26.7489C33.693 26.7489 34.1831 26.1807 34.1831 26.1807L34.1388 26.4564C34.1221 26.5619 34.2034 26.6565 34.3097 26.6565H35.2035C35.345 26.6565 35.4656 26.5534 35.4878 26.4131L36.0245 23.016C36.0409 22.9114 35.9597 22.8166 35.8533 22.8166ZM34.4698 24.7483C34.3746 25.3154 33.9239 25.696 33.3499 25.696C33.0623 25.696 32.8314 25.6036 32.6835 25.4284C32.5368 25.2545 32.4816 25.0069 32.5277 24.7311C32.6177 24.1689 33.0747 23.7758 33.64 23.7758C33.9218 23.7758 34.1509 23.8694 34.3019 24.0461C34.4537 24.2246 34.5137 24.4738 34.4698 24.7483Z" fill="white"/>
<path id="Vector_6" d="M37.0234 21.0452L36.1727 26.4574C36.156 26.5622 36.2373 26.6568 36.343 26.6568H37.1983C37.3404 26.6568 37.4611 26.5537 37.4829 26.4134L38.3218 21.0988C38.3384 20.9939 38.2572 20.8991 38.1514 20.8991H37.1938C37.1092 20.8994 37.0365 20.9612 37.0234 21.0452Z" fill="white"/>
</g>
<g id="Group_3">
<path id="Vector_7" opacity="0.68" d="M30.1159 7.42382C30.2803 6.37542 30.1148 5.66222 29.5478 5.016C28.9235 4.30472 27.7958 4 26.3529 4H22.1645C21.8697 4 21.6185 4.21454 21.5727 4.50594L19.8285 15.5653C19.7942 15.7835 19.9629 15.9808 20.1836 15.9808H22.7693L22.5909 17.1125C22.5608 17.3034 22.7082 17.4759 22.9015 17.4759H25.081C25.3389 17.4759 25.5586 17.2883 25.5988 17.0334L25.6202 16.9225L26.0307 14.3189L26.0572 14.1751C26.0974 13.9203 26.3171 13.7324 26.575 13.7324H26.901C29.0124 13.7324 30.6657 12.8747 31.1488 10.3939C31.3507 9.35726 31.2462 8.49198 30.7124 7.88364C30.5511 7.69999 30.3502 7.5479 30.1159 7.42382Z" fill="white"/>
<path id="Vector_8" opacity="0.7" d="M30.1159 7.42382C30.2803 6.37542 30.1148 5.66222 29.5478 5.016C28.9235 4.30472 27.7958 4 26.3529 4H22.1645C21.8697 4 21.6185 4.21454 21.5727 4.50594L19.8285 15.5653C19.7942 15.7835 19.9629 15.9808 20.1836 15.9808H22.7693L23.4188 11.862L23.3986 11.9911C23.4446 11.6999 23.6935 11.4852 23.9884 11.4852H25.2175C27.6311 11.4852 29.521 10.5046 30.073 7.66883C30.0895 7.5851 30.1034 7.5037 30.1159 7.42382Z" fill="white"/>
<path id="Vector_9" d="M24.1166 7.43768C24.1442 7.26254 24.2568 7.11896 24.4082 7.04649C24.4769 7.01355 24.554 6.99515 24.6345 6.99515H27.9176C28.3066 6.99515 28.6693 7.02068 29.0008 7.07408C29.0955 7.08931 29.1877 7.10688 29.2773 7.12679C29.3668 7.14669 29.4539 7.16879 29.538 7.1935C29.5801 7.20571 29.6215 7.21875 29.6622 7.2322C29.825 7.28628 29.9767 7.34997 30.1161 7.42395C30.2806 6.37556 30.115 5.66236 29.548 5.01614C28.9235 4.30472 27.7958 4 26.3529 4H22.1645C21.8697 4 21.6185 4.21454 21.5727 4.50594L19.8285 15.5653C19.7942 15.7835 19.9629 15.9808 20.1836 15.9808H22.7693L23.4188 11.862L24.1166 7.43768Z" fill="white"/>
</g>
</g>
</g>
</g>
</svg>
