<svg width="25" height="20" viewBox="0 0 25 20" fill="none" xmlns="http://www.w3.org/2000/svg">
<path d="M11.1982 8.44162L11.3814 18.94L0.883019 19.1233L0.697151 8.4749C0.571493 1.27599 7.30476 0.258325 7.30476 0.258325L8.24127 2.3423C8.24127 2.3423 5.24958 2.84459 4.69156 5.25469C4.12306 7.06489 5.34906 8.54372 5.34906 8.54372L11.1982 8.44162ZM24.6961 8.20602L24.8794 18.7044L14.381 18.8877L14.1951 8.23929C14.0694 1.04038 20.8027 0.0227179 20.8027 0.0227179L21.7392 2.10669C21.7392 2.10669 18.7475 2.60898 18.1895 5.01909C17.621 6.82928 18.847 8.30811 18.847 8.30811L24.6961 8.20602Z" fill="white"/>
</svg>
