<svg width="25" height="20" viewBox="0 0 25 20" fill="none" xmlns="http://www.w3.org/2000/svg">
<path d="M14.0047 11.0363L13.8214 0.53785L24.3198 0.354601L24.5057 11.003C24.6314 18.2019 17.8981 19.2195 17.8981 19.2195L16.9616 17.1356C16.9616 17.1356 19.9533 16.6333 20.5113 14.2232C21.0798 12.413 19.8538 10.9342 19.8538 10.9342L14.0047 11.0363ZM0.506753 11.2719L0.323503 0.773457L10.8219 0.590207L11.0078 11.2386C11.1334 18.4375 4.40016 19.4552 4.40016 19.4552L3.46365 17.3712C3.46365 17.3712 6.45534 16.8689 7.01336 14.4588C7.58186 12.6486 6.35586 11.1698 6.35586 11.1698L0.506753 11.2719Z" fill="white"/>
</svg>
