<svg width="24" height="24" viewBox="0 0 24 24" fill="none" xmlns="http://www.w3.org/2000/svg">
<path opacity="0.5" d="M22 12C22 17.523 17.523 22 12 22C6.477 22 2 17.523 2 12C2 6.477 6.477 2 12 2C17.523 2 22 6.477 22 12Z" fill="white" fill-opacity="0.5"/>
<path d="M16.807 19.011C15.3928 19.9834 13.7163 20.5028 12 20.5C10.2837 20.5028 8.60719 19.9834 7.19298 19.011C6.58898 18.596 6.33098 17.806 6.68298 17.163C7.40998 15.83 8.90998 15 12 15C15.09 15 16.59 15.83 17.318 17.163C17.668 17.806 17.411 18.596 16.807 19.011ZM12 12C12.7956 12 13.5587 11.6839 14.1213 11.1213C14.6839 10.5587 15 9.79565 15 9C15 8.20435 14.6839 7.44129 14.1213 6.87868C13.5587 6.31607 12.7956 6 12 6C11.2043 6 10.4413 6.31607 9.87866 6.87868C9.31605 7.44129 8.99998 8.20435 8.99998 9C8.99998 9.79565 9.31605 10.5587 9.87866 11.1213C10.4413 11.6839 11.2043 12 12 12Z" fill="white" fill-opacity="0.5"/>
</svg>
