<svg width="50" height="32" viewBox="0 0 50 32" fill="none" xmlns="http://www.w3.org/2000/svg">
<path d="M22.4666 21.5354H19.3884L21.3137 10.4999H24.3918L22.4666 21.5354Z" fill="white"/>
<path d="M33.6256 10.7698C33.0184 10.5465 32.0554 10.3 30.8647 10.3C27.8248 10.3 25.6841 11.8026 25.671 13.9509C25.6457 15.5359 27.2036 16.4163 28.3688 16.9448C29.5598 17.4848 29.9646 17.8373 29.9646 18.3187C29.9525 19.058 29.0022 19.3988 28.116 19.3988C26.887 19.3988 26.2285 19.2231 25.2278 18.8118L24.8224 18.6354L24.3917 21.1127C25.1136 21.4176 26.4438 21.6881 27.8248 21.7C31.0547 21.7 33.1575 20.2206 33.1824 17.9312C33.1947 16.675 32.3721 15.7124 30.5985 14.9258C29.5219 14.4209 28.8625 14.0804 28.8625 13.5638C28.8752 13.0941 29.4202 12.6131 30.6356 12.6131C31.6363 12.5895 32.3716 12.8125 32.9286 13.0356L33.207 13.1528L33.6256 10.7698Z" fill="white"/>
<path d="M37.7169 17.6259C37.9704 16.9919 38.9458 14.5383 38.9458 14.5383C38.9331 14.5618 39.1989 13.8926 39.3509 13.4818L39.566 14.4326C39.566 14.4326 40.1489 17.0742 40.2755 17.6259C39.7944 17.6259 38.3249 17.6259 37.7169 17.6259ZM41.5166 10.4999H39.1356C38.4013 10.4999 37.8435 10.6993 37.5267 11.4155L32.9543 21.5353H36.1842C36.1842 21.5353 36.716 20.1732 36.8303 19.8799C37.1846 19.8799 40.3267 19.8799 40.7825 19.8799C40.8709 20.2673 41.1498 21.5353 41.1498 21.5353H44L41.5166 10.4999Z" fill="white"/>
<path d="M16.8173 10.4999L13.8026 18.0251L13.4732 16.4989C12.9158 14.7378 11.1679 12.8245 9.21729 11.8732L11.9786 21.5237H15.2338L20.0723 10.4999H16.8173Z" fill="white"/>
<path d="M11.0033 10.4999H6.05067L6 10.7229C9.86336 11.6387 12.422 13.8461 13.4732 16.4993L12.3966 11.4275C12.2193 10.7227 11.6746 10.5232 11.0033 10.4999Z" fill="#FAA61A"/>
</svg>
